<?xml version="1.0" encoding="UTF-8"?>
<svg version="1.1" xmlns="http://www.w3.org/2000/svg" width="265" height="231">
<path d="M0 0 C0.72251953 0.16483887 1.44503906 0.32967773 2.18945312 0.49951172 C14.02526847 3.29796237 25.16845523 7.45847438 36 13 C37.74023438 13.86431641 37.74023438 13.86431641 39.515625 14.74609375 C42 17 42 17 42.36621094 19.03149414 C42.375 21.25 42.375 21.25 42 25 C42.62044189 25.14099121 43.24088379 25.28198242 43.88012695 25.42724609 C46.69242449 26.07010209 49.50244009 26.72243553 52.3125 27.375 C53.77719727 27.70757812 53.77719727 27.70757812 55.27148438 28.046875 C56.20927734 28.26601562 57.14707031 28.48515625 58.11328125 28.7109375 C59.40939331 29.00943604 59.40939331 29.00943604 60.73168945 29.31396484 C63 30 63 30 66 32 C64.61929664 36.10558353 62.69993563 38.67582353 59.8125 41.875 C56.52698444 45.77109028 56.52698444 45.77109028 55.875 50.75 C56.24625 51.8225 56.6175 52.895 57 54 C59.35033557 60.91275168 59.35033557 60.91275168 59 65 C58 66 58 66 55.40795898 66.02172852 C54.28204346 65.97459717 53.15612793 65.92746582 51.99609375 65.87890625 C50.78115234 65.83056641 49.56621094 65.78222656 48.31445312 65.73242188 C47.03505859 65.67634766 45.75566406 65.62027344 44.4375 65.5625 C43.15423828 65.51029297 41.87097656 65.45808594 40.54882812 65.40429688 C37.36566609 65.2741304 34.18277996 65.13914999 31 65 C30.88301758 66.24491211 30.76603516 67.48982422 30.64550781 68.77246094 C30.0087462 74.47329784 28.86633434 80.03396794 27.671875 85.640625 C27.32555023 87.26843903 27.32555023 87.26843903 26.972229 88.92913818 C26.48407833 91.20888432 25.99312641 93.48803226 25.49951172 95.76660156 C24.9986782 98.0942539 24.50619746 100.42371874 24.02197266 102.75488281 C23.31925732 106.13762215 22.59219482 109.51429587 21.859375 112.890625 C21.64770691 113.93027405 21.43603882 114.9699231 21.21795654 116.04107666 C19.31787235 124.56345334 15.80109296 128.05499596 8.5 132.76171875 C7.448125 133.4479834 6.39625 134.13424805 5.3125 134.84130859 C4.219375 135.55367676 3.12625 136.26604492 2 137 C-0.17014005 138.45969306 -2.33680776 139.92456152 -4.5 141.39453125 C-5.57121094 142.12220703 -6.64242187 142.84988281 -7.74609375 143.59960938 C-8.81988281 144.32986328 -9.89367187 145.06011719 -11 145.8125 C-12.1158692 146.56968535 -13.23175457 147.32684688 -14.34765625 148.08398438 C-15.40855469 148.80521484 -16.46945313 149.52644531 -17.5625 150.26953125 C-18.51253906 150.91510986 -19.46257812 151.56068848 -20.44140625 152.22583008 C-22.98246324 153.91313856 -22.98246324 153.91313856 -25.02734375 155.7956543 C-27 157 -27 157 -29.41015625 156.85864258 C-32.28235485 155.90638744 -34.77751212 154.70677284 -37.4375 153.26171875 C-38.48768311 152.69630371 -39.53786621 152.13088867 -40.61987305 151.54833984 C-42.91188508 150.286533 -45.19969551 149.01706956 -47.48364258 147.74072266 C-48.66200743 147.08318425 -49.84063821 146.4261222 -51.01953125 145.76953125 C-51.60660355 145.44162598 -52.19367584 145.1137207 -52.79853821 144.77587891 C-56.49893881 142.73828196 -60.23333406 140.99580127 -64.13671875 139.38671875 C-77.23742216 133.6616348 -77.23742216 133.6616348 -80.55126953 126.77734375 C-83.03701146 119.53981495 -84.50186021 112.17323626 -85.57714844 104.60693359 C-85.86282064 102.02582761 -85.86282064 102.02582761 -87 100 C-87.53367188 100.71285156 -88.06734375 101.42570312 -88.6171875 102.16015625 C-94.51744822 109.74474745 -100.98981833 116.23534984 -110 120 C-112.140625 120.1953125 -112.140625 120.1953125 -114.25 120.125 C-115.4875 120.08375 -116.725 120.0425 -118 120 C-118 119.34 -118 118.68 -118 118 C-116.98679687 117.52691406 -115.97359375 117.05382812 -114.9296875 116.56640625 C-105.21811203 111.84797226 -99.7189303 107.96174483 -95.67578125 97.609375 C-92.01198805 88.49506206 -92.01198805 88.49506206 -88.46875 86.76171875 C-85.94430204 86.28657122 -83.5621481 86.0921636 -81 86 C-80.34 85.67 -79.68 85.34 -79 85 C-77.90004042 81.70012125 -77.83252409 79.15967713 -77.8125 75.6875 C-77.79832031 74.57761719 -77.78414062 73.46773438 -77.76953125 72.32421875 C-78.0075605 68.89094938 -78.83143295 66.22035339 -80 63 C-80.35892201 59.41077991 -80.43927505 57.69551884 -78.5 54.625 C-78.005 54.08875 -77.51 53.5525 -77 53 C-76.01 53.495 -76.01 53.495 -75 54 C-74.66666667 56 -74.33333333 58 -74 60 C-73.01 60.495 -73.01 60.495 -72 61 C-70.26485727 60.03603181 -68.53102998 59.06580303 -66.8515625 58.0078125 C-63.54433722 56.20767722 -60.38860827 55.87288875 -56.6640625 55.8671875 C-55.84679687 55.86589844 -55.02953125 55.86460938 -54.1875 55.86328125 C-53.341875 55.86714844 -52.49625 55.87101562 -51.625 55.875 C-50.78710938 55.87113281 -49.94921875 55.86726563 -49.0859375 55.86328125 C-44.59987396 55.87033481 -40.42276758 56.16307629 -36 57 C-33.77084833 56.9442592 -33.77084833 56.9442592 -32 56 C-31.73445313 55.41863281 -31.46890625 54.83726563 -31.1953125 54.23828125 C-29.63364821 51.31398832 -27.59981704 49.57075755 -25.125 47.375 C-24.26132813 46.59898438 -23.39765625 45.82296875 -22.5078125 45.0234375 C-20.36845321 43.29728779 -18.50660047 42.08425043 -16 41 C-16.39832031 40.52691406 -16.79664063 40.05382812 -17.20703125 39.56640625 C-23.5861991 31.60408725 -25.21968423 25.04445131 -25 15 C-26.00264893 15.02094727 -27.00529785 15.04189453 -28.03833008 15.06347656 C-31.80852606 15.13664934 -35.57866123 15.182076 -39.34936523 15.21972656 C-40.97186893 15.23966813 -42.59430242 15.26683174 -44.21655273 15.30175781 C-53.89279746 15.50465163 -62.09451696 15.36598782 -71 11 C-71 10.67 -71 10.34 -71 10 C-69.91203125 10.09539063 -68.8240625 10.19078125 -67.703125 10.2890625 C-57.77072457 11.07087362 -48.5932958 11.19776527 -39 8 C-36.32041019 7.87583797 -33.67964065 7.80988401 -31 7.8125 C-30.23469971 7.81258057 -29.46939941 7.81266113 -28.6809082 7.81274414 C-23.51391381 7.86445219 -18.69000493 8.3903162 -13.6328125 9.49609375 C-9.65836063 10.25678261 -5.66485146 10.44128621 -1.62890625 10.65625 C1.06020342 11.00787207 2.76568325 11.46936462 5 13 C5.75 16.125 5.75 16.125 6 19 C-3.41002278 21.29612756 -3.41002278 21.29612756 -8 21 C-4.92593399 24.17322943 -1.74283899 27.07511156 1.625 29.9375 C5.65001859 33.52050324 8.73367115 36.51236029 9.1640625 42.1484375 C9.18460123 44.09961673 9.10079391 46.05131767 9 48 C9.7734375 47.72285156 10.546875 47.44570312 11.34375 47.16015625 C17.23905888 45.10993126 22.73458975 43.23205223 29 43 C29.66 43.66 30.32 44.32 31 45 C31.84268087 41.60641656 32.67247901 38.20980915 33.5 34.8125 C33.73847656 33.85279297 33.97695312 32.89308594 34.22265625 31.90429688 C34.44824219 30.97294922 34.67382812 30.04160156 34.90625 29.08203125 C35.11572266 28.22843018 35.32519531 27.3748291 35.54101562 26.49536133 C36.01093734 23.94053693 36.08117627 21.59155241 36 19 C2.13468066 2.33153786 -36.63783606 -4.36371679 -73.24609375 7.3203125 C-82.68415852 10.5386993 -91.32282873 15.1394233 -100 20 C-96.96525633 35.10875103 -93.30390417 50.01720377 -89.47998047 64.94311523 C-88.73794211 67.84520973 -88.00155274 70.74869476 -87.265625 73.65234375 C-87.03756165 74.53454086 -86.80949829 75.41673798 -86.57452393 76.32566833 C-86.36720642 77.14495316 -86.15988892 77.96423798 -85.94628906 78.80834961 C-85.67126556 79.88154701 -85.67126556 79.88154701 -85.39068604 80.97642517 C-85 83 -85 83 -85 87 C-86.65 86.67 -88.3 86.34 -90 86 C-90.67218507 83.25124318 -91.33792435 80.50119274 -92 77.75 C-92.19078125 76.97269531 -92.3815625 76.19539063 -92.578125 75.39453125 C-92.75859375 74.64042969 -92.9390625 73.88632813 -93.125 73.109375 C-93.29257813 72.41811523 -93.46015625 71.72685547 -93.6328125 71.01464844 C-94 69 -94 69 -94 65 C-94.83772949 65.03552979 -95.67545898 65.07105957 -96.53857422 65.10766602 C-99.64323576 65.23679338 -102.74804148 65.36112048 -105.85302734 65.48217773 C-107.85920071 65.56187238 -109.86515076 65.64712518 -111.87109375 65.73242188 C-113.12792969 65.78076172 -114.38476562 65.82910156 -115.6796875 65.87890625 C-117.42354736 65.94960327 -117.42354736 65.94960327 -119.20263672 66.02172852 C-122 66 -122 66 -124 65 C-123.79503906 64.19175781 -123.59007812 63.38351563 -123.37890625 62.55078125 C-123.10949219 61.48214844 -122.84007812 60.41351563 -122.5625 59.3125 C-122.29566406 58.25675781 -122.02882813 57.20101562 -121.75390625 56.11328125 C-121.50511719 55.08589844 -121.25632812 54.05851562 -121 53 C-120.69964844 52.17886719 -120.39929688 51.35773438 -120.08984375 50.51171875 C-119.94804626 46.54755403 -122.51133952 44.32266491 -125 41.5 C-126.8704874 39.3784735 -128.40651932 37.36678748 -130 35 C-129.6328125 32.30273438 -129.6328125 32.30273438 -129 30 C-128.30849854 29.85377197 -127.61699707 29.70754395 -126.90454102 29.55688477 C-123.78969291 28.89595285 -120.67609577 28.22930546 -117.5625 27.5625 C-116.47388672 27.33240234 -115.38527344 27.10230469 -114.26367188 26.86523438 C-113.22919922 26.64287109 -112.19472656 26.42050781 -111.12890625 26.19140625 C-109.69140015 25.88505249 -109.69140015 25.88505249 -108.22485352 25.57250977 C-106.04247738 25.21200486 -106.04247738 25.21200486 -105 24 C-105.28674418 21.99279077 -105.61866701 19.9914056 -106 18 C-74.6002881 -3.47714182 -36.78912324 -8.39454692 0 0 Z M-109 41 C-109.33 41.99 -109.66 42.98 -110 44 C-110.99 44.33 -111.98 44.66 -113 45 C-112.67 46.65 -112.34 48.3 -112 50 C-110.02 50 -108.04 50 -106 50 C-105.34 48.02 -104.68 46.04 -104 44 C-104.99 43.67 -105.98 43.34 -107 43 C-107.66 42.34 -108.32 41.68 -109 41 Z M43 41 C42.67 41.66 42.34 42.32 42 43 C41.01 43.66 40.02 44.32 39 45 C39.66 45 40.32 45 41 45 C41 46.65 41 48.3 41 50 C42.98 50 44.96 50 47 50 C47.33 48.02 47.66 46.04 48 44 C47.01 44 46.02 44 45 44 C44.67 43.01 44.34 42.02 44 41 C43.67 41 43.34 41 43 41 Z M30 48 C31 50 31 50 31 50 Z M29 50 C26.79595525 52.42298076 24.61484296 54.86551705 22.4375 57.3125 C21.80908203 58.00279297 21.18066406 58.69308594 20.53320312 59.40429688 C19.94345703 60.07138672 19.35371094 60.73847656 18.74609375 61.42578125 C18.19622803 62.03848877 17.6463623 62.65119629 17.07983398 63.2824707 C16.72348877 63.84925537 16.36714355 64.41604004 16 65 C17.24546405 68.73639216 18.63404953 69.18756513 22 71 C20.9897161 77.77784663 19.86419676 84.52956633 18.66137695 91.27587891 C18.26657527 93.56614715 17.89712224 95.86095037 17.55493164 98.15966797 C14.37833106 119.29716362 14.37833106 119.29716362 5.99819946 125.65803528 C3.0731992 127.56858515 0.09246494 129.29715805 -3.00045776 130.92071533 C-5.66388304 132.35834141 -8.04181323 134.09183696 -10.45703125 135.91015625 C-11.19630859 136.44447266 -11.93558594 136.97878906 -12.69726562 137.52929688 C-13.39529297 138.03525391 -14.09332031 138.54121094 -14.8125 139.0625 C-15.56080078 139.60326172 -16.30910156 140.14402344 -17.08007812 140.70117188 C-21.11813777 143.60355101 -21.11813777 143.60355101 -25.02856445 146.67236328 C-27 148 -27 148 -30.2734375 147.95703125 C-34.64269496 146.83494731 -37.83885727 145.07575239 -41.625 142.6875 C-46.54025373 139.63033723 -51.43130776 136.73726307 -56.63671875 134.1953125 C-71.67479103 126.68592027 -71.67479103 126.68592027 -74.078125 121.4296875 C-75.08629518 117.59704056 -75.57951086 113.93766465 -76 110 C-76.65324944 107.15904878 -77.44908953 104.36484994 -78.25 101.5625 C-78.83333333 99.375 -79.41666667 97.1875 -80 95 C-78.02 94.505 -78.02 94.505 -76 94 C-78.31 94 -80.62 94 -83 94 C-83.33 94.66 -83.66 95.32 -84 96 C-83.34 96 -82.68 96 -82 96 C-81.8659375 97.09054688 -81.731875 98.18109375 -81.59375 99.3046875 C-81.49835938 100.0378418 -81.40296875 100.77099609 -81.3046875 101.52636719 C-81.09711095 103.21159601 -80.9158477 104.90022602 -80.7578125 106.59082031 C-79.89725145 114.71672622 -78.81923894 123.45811878 -72.57275391 129.25097656 C-66.51913454 133.42425037 -59.92715228 136.45940506 -53.23925781 139.47119141 C-47.51795957 142.1714303 -42.21163203 145.56498411 -36.83911133 148.89160156 C-36.12263428 149.31795898 -35.40615723 149.74431641 -34.66796875 150.18359375 C-33.74407349 150.74904907 -33.74407349 150.74904907 -32.80151367 151.32592773 C-30.38025231 152.23189096 -29.4013332 151.94820166 -27 151 C-25.1495311 149.88555515 -23.3395454 148.70293908 -21.55859375 147.48046875 C-20.49753418 146.75778809 -19.43647461 146.03510742 -18.34326172 145.29052734 C-17.79208679 144.91216736 -17.24091187 144.53380737 -16.67303467 144.14398193 C-13.97516429 142.29924134 -11.25316564 140.49066632 -8.53515625 138.67578125 C-6.37721035 137.22193854 -4.2196592 135.76750973 -2.0625 134.3125 C-0.41797852 133.21325195 -0.41797852 133.21325195 1.25976562 132.09179688 C2.31744141 131.37701172 3.37511719 130.66222656 4.46484375 129.92578125 C5.409646 129.29067627 6.35444824 128.65557129 7.32788086 128.0012207 C12.68998227 123.98540113 15.49212177 120.97759824 16.96044922 114.34545898 C17.1090892 113.69766479 17.25772919 113.04987061 17.41087341 112.38244629 C17.89357633 110.25726048 18.34957022 108.12734238 18.8046875 105.99609375 C19.13488445 104.51036384 19.46645921 103.02493953 19.79934692 101.53981018 C20.49131131 98.43461505 21.17084036 95.32705212 21.84082031 92.21704102 C22.69959072 88.23255018 23.58251053 84.25391152 24.47392082 80.27661037 C25.15893616 77.21301843 25.83448333 74.14740357 26.50683975 71.08101082 C26.82926221 69.61293584 27.15384008 68.1453325 27.48061752 66.67822075 C27.93485166 64.62905227 28.37708318 62.57766018 28.81591797 60.52514648 C29.06953094 59.35886215 29.32314392 58.19257782 29.58444214 56.99095154 C29.97057824 54.21176127 29.9391105 52.6049095 29 50 Z M11 61 C9.53686228 61.76167457 8.07963339 62.53470707 6.625 63.3125 C5.81289062 63.74175781 5.00078125 64.17101562 4.1640625 64.61328125 C1.73165957 65.96778724 1.73165957 65.96778724 0 69 C1.32 69 2.64 69 4 69 C4 68.01 4 67.02 4 66 C5.1446875 66.0928125 5.1446875 66.0928125 6.3125 66.1875 C9.04525312 66.25898085 9.04525312 66.25898085 10.8125 64.5 C11.204375 64.005 11.59625 63.51 12 63 C11.67 62.34 11.34 61.68 11 61 Z M6 72 C6 72.33 6 72.66 6 73 C7.65 73 9.3 73 11 73 C11 72.67 11 72.34 11 72 C9.35 72 7.7 72 6 72 Z M-49 78 C-48.67 78.66 -48.34 79.32 -48 80 C-46.68 79.34 -45.36 78.68 -44 78 C-45.65 78 -47.3 78 -49 78 Z M-44 79 C-40 80 -40 80 -40 80 Z M-50 80 C-49 83 -49 83 -49 83 Z M-39 80 C-39 80.33 -39 80.66 -39 81 C-37.02 81 -35.04 81 -33 81 C-33 80.67 -33 80.34 -33 80 C-34.98 80 -36.96 80 -39 80 Z M-22 80 C-22 80.33 -22 80.66 -22 81 C-20.35 81 -18.7 81 -17 81 C-17 80.67 -17 80.34 -17 80 C-18.65 80 -20.3 80 -22 80 Z M-33 81 C-33 81.33 -33 81.66 -33 82 C-29.37 82 -25.74 82 -22 82 C-22 81.67 -22 81.34 -22 81 C-25.63 81 -29.26 81 -33 81 Z M-51 83 C-50 85 -50 85 -50 85 Z M-52 85 C-51 87 -51 87 -51 87 Z M-53 88 C-52 90 -52 90 -52 90 Z M-33 94 C-30.71294169 95.14352916 -29.40735238 95.10334439 -26.875 95.0625 C-25.59625 95.041875 -24.3175 95.02125 -23 95 C-23 94.34 -23 93.68 -23 93 C-28.28199593 91.80011955 -28.28199593 91.80011955 -33 94 Z M-76 95 C-76 95.33 -76 95.66 -76 96 C-71.38 96 -66.76 96 -62 96 C-62 95.67 -62 95.34 -62 95 C-66.62 95 -71.24 95 -76 95 Z M-44 101 C-43 103 -43 103 -43 103 Z M-18 101 C-19.18496548 105.89895217 -19.18496548 105.89895217 -17.5625 110.4375 C-17.046875 110.953125 -16.53125 111.46875 -16 112 C-14.35 111.67 -12.7 111.34 -11 111 C-11.02126462 107.59385054 -11.02126462 107.59385054 -12 104 C-14.93449408 101.98958997 -14.93449408 101.98958997 -18 101 Z M-33 102 C-34.98 102.99 -36.96 103.98 -39 105 C-38.67 107.64 -38.34 110.28 -38 113 C-35.69 113.33 -33.38 113.66 -31 114 C-30.01 111.69 -29.02 109.38 -28 107 C-29.65 105.35 -31.3 103.7 -33 102 Z M-43 118 C-42.67 118.99 -42.34 119.98 -42 121 C-42 120.01 -42 119.02 -42 118 C-42.33 118 -42.66 118 -43 118 Z M-21 120 C-23.31 120.66 -25.62 121.32 -28 122 C-28.33 123.32 -28.66 124.64 -29 126 C-27.29887008 126.80469849 -27.29887008 126.80469849 -25 127 C-21.78287055 125.64185993 -21.78287055 125.64185993 -19 124 C-19.66 122.68 -20.32 121.36 -21 120 Z " fill="#FCFCFC" transform="translate(165,48)"/>
<path d="M0 0 C8.03611498 2.994941 15.19744652 7.05016346 19.3125 14.875 C21.19112835 19.13322427 22.64093918 23.55216458 24 28 C23.52778878 22.52234989 22.62316044 18.90416952 20 14 C20 13.01 20 12.02 20 11 C26.03685927 13.84087495 29.78009986 18.8788508 32.16796875 24.98828125 C33.57388291 30.35998195 33.20998131 35.93005724 33.125 41.4375 C33.11597656 42.55060547 33.10695313 43.66371094 33.09765625 44.81054688 C33.0742224 47.54059023 33.041414 50.2701801 33 53 C34.52016163 44.58481953 35.27733386 36.5511272 35 28 C41.83294387 36.72250098 42.87859592 46.24313643 42 57 C40.95420497 61.44204029 39.48328247 65.68837963 38 70 C37.39914262 72.09922975 36.81446251 74.20319272 36.25 76.3125 C35.88648438 77.66794922 35.88648438 77.66794922 35.515625 79.05078125 C35.34546875 79.69402344 35.1753125 80.33726563 35 81 C35.66 81 36.32 81 37 81 C39.42080258 74.0834212 41.29977612 67.12647031 43 60 C43.66 60 44.32 60 45 60 C47.59562638 72.32922531 46.09468424 86.05179433 39.47265625 96.90625 C37.25855903 100.05414419 34.85466693 103.03153061 32.35546875 105.95703125 C30.63142635 108.14689298 30.63142635 108.14689298 31 112 C36.41845333 106.43687923 40.36106316 101.34388345 43 94 C43.66 94.33 44.32 94.66 45 95 C43.47816228 109.49152936 38.81385708 119.96288876 27.3359375 129.36279297 C25.00477743 131.1811235 22.65669834 132.96664582 20.25390625 134.68945312 C16.78469448 137.17250715 16.78469448 137.17250715 15 141 C22.87490669 136.54742118 29.55780079 132.44097055 35 125 C35.33 125.66 35.66 126.32 36 127 C31.34628942 139.48129071 23.09730723 149.14591924 11.07421875 154.92578125 C6.06277183 156.94903622 0.7888489 158.11553684 -4.4609375 159.3515625 C-6.97043934 159.89689183 -6.97043934 159.89689183 -9 161 C0.87190859 161.477673 8.65333336 159.26202897 17 154 C16.37004687 159.66957814 11.40862447 162.77153835 7.25 166.125 C-0.88960283 172.0061283 -9.11091153 172.89900804 -19 172 C-22.13840269 171.35144647 -25.17759122 170.57808108 -28.24609375 169.65625 C-31.24844809 168.94079535 -33.92462534 168.89129751 -37 169 C-34.91870896 169.98350025 -32.83488641 170.96164458 -30.75 171.9375 C-29.58984375 172.48277344 -28.4296875 173.02804688 -27.234375 173.58984375 C-18.11504084 177.56578534 -10.19404752 176.22463462 -1 173 C-3.15371996 178.49734045 -7.98679574 180.40591403 -13 183 C-19.95478499 185.96222324 -27.59686877 185.54687263 -34.6796875 183.05859375 C-39.15096698 180.94831699 -42.40240847 178.6182089 -45.9375 175.1875 C-52.49361193 169.68036598 -61.98002489 171.48600363 -70 172 C-69.67 170.35 -69.34 168.7 -69 167 C-60.20387061 164.90390108 -51.59079005 163.38282524 -43 167 C-43 166.34 -43 165.68 -43 165 C-42.3709375 164.84144531 -41.741875 164.68289062 -41.09375 164.51953125 C-30.99482466 161.76666154 -24.83055843 157.22561759 -17.67993164 149.65820312 C-16.48714735 148.40566181 -15.24693045 147.19864864 -14 146 C-13.34 146 -12.68 146 -12 146 C-11.7525 145.401875 -11.505 144.80375 -11.25 144.1875 C-9.81927475 141.68373081 -8.4308418 140.51927612 -6 139 C-5.34 139 -4.68 139 -4 139 C-5.66773325 145.17061304 -8.89830856 150.4657867 -12 156 C-12.33 156.66 -12.66 157.32 -13 158 C-6.49270896 152.05247593 -3.53756544 143.63249797 -0.5625 135.5 C1.88087427 128.95270584 4.8755179 122.66871948 9 117 C9.99 116.67 10.98 116.34 12 116 C10.77369525 124.13689268 9.09660847 132.04486844 7 140 C6.6645764 141.33280902 6.3303712 142.66592963 6 144 C11.58939029 134.610708 13.13280632 124.76545281 14.7421875 114.12890625 C14.86899902 113.2980249 14.99581055 112.46714355 15.12646484 111.61108398 C15.36794422 110.0039046 15.60065406 108.39537229 15.82275391 106.78540039 C16.62882683 101.28038262 18.0876756 96.22175959 20 91 C20.33 91 20.66 91 21 91 C22.39049107 100.08785235 23.30892527 108.78372955 23 118 C27.24938154 108.43889155 24.85582166 98.02587405 22.65625 88.25 C22 85 22 85 22 81 C19.69 80.67 17.38 80.34 15 80 C15.02320313 80.62648438 15.04640625 81.25296875 15.0703125 81.8984375 C15.08835937 82.71570313 15.10640625 83.53296875 15.125 84.375 C15.14820313 85.18710938 15.17140625 85.99921875 15.1953125 86.8359375 C15 89 15 89 13 91 C10.5 91.25 10.5 91.25 8 91 C5.58513057 88.58513057 5.7038075 87.87292211 5.6875 84.5625 C5.67074219 83.78003906 5.65398437 82.99757813 5.63671875 82.19140625 C6.07646749 79.53872837 6.95628454 78.677033 9 77 C8.34 76.67 7.68 76.34 7 76 C7.33 75.34 7.66 74.68 8 74 C13.94 74.99 13.94 74.99 20 76 C20.33 72.7 20.66 69.4 21 66 C21.66 66 22.32 66 23 66 C23.33773437 66.78246094 23.67546875 67.56492187 24.0234375 68.37109375 C24.46945313 69.38300781 24.91546875 70.39492187 25.375 71.4375 C25.81585938 72.44683594 26.25671875 73.45617187 26.7109375 74.49609375 C27.75076286 77.12143547 27.75076286 77.12143547 30 78 C28.15641123 71.53696435 24.85167338 65.92990031 21.6328125 60.07617188 C18.37730249 54.04192032 16 48.9854033 16 42 C19.93472548 43.31157516 21.12683424 45.33383447 23.6875 48.5625 C24.49574219 49.57441406 25.30398437 50.58632812 26.13671875 51.62890625 C26.75160156 52.41136719 27.36648437 53.19382813 28 54 C26.99242079 48.06058568 22.14831688 43.57193918 17.4375 40.125 C12.51673394 35.83510138 8.93782235 29.90080229 8.125 23.375 C8.08375 22.26125 8.0425 21.1475 8 20 C8.99 21.0209375 8.99 21.0209375 10 22.0625 C13.49468234 25.56725347 17.25130779 28.77221788 21 32 C19.34410001 28.7856059 17.53232976 26.51104784 14.875 24.125 C10.11737408 19.57025792 7.16376982 13.89301944 3.91796875 8.23046875 C2.20209964 5.03741246 2.20209964 5.03741246 0 3 C0 2.01 0 1.02 0 0 Z M10 79 C10 82.63 10 86.26 10 90 C10.33 90 10.66 90 11 90 C11 86.37 11 82.74 11 79 C10.67 79 10.34 79 10 79 Z M30 83 C30.33 84.65 30.66 86.3 31 88 C31.33 88 31.66 88 32 88 C32 86.35 32 84.7 32 83 C31.34 83 30.68 83 30 83 Z " fill="#FAFAFA" transform="translate(219,46)"/>
<path d="M0 0 C0.495 1.485 0.495 1.485 1 3 C0.03125 4.65625 0.03125 4.65625 -1.5 6.5 C-4.09191828 9.75944248 -6.36797113 13.08481496 -8.5625 16.625 C-11.12351206 20.71692815 -13.78946271 24.40030668 -17 28 C-12.72348515 26.41610561 -10.78099441 23.45745251 -8 20 C-7.67 20 -7.34 20 -7 20 C-7.16418376 28.70173919 -11.24748697 35.38426637 -17.46484375 41.375 C-19.0418008 42.73023639 -20.64415678 44.05683139 -22.27734375 45.34375 C-22.84582031 45.8903125 -23.41429688 46.436875 -24 47 C-24 47.99 -24 48.98 -24 50 C-23.51789062 49.4225 -23.03578125 48.845 -22.5390625 48.25 C-21.90742188 47.5075 -21.27578125 46.765 -20.625 46 C-19.68527344 44.88625 -19.68527344 44.88625 -18.7265625 43.75 C-18.15679688 43.1725 -17.58703125 42.595 -17 42 C-16.34 42 -15.68 42 -15 42 C-15.61530643 51.1898992 -19.41187513 58.21262839 -23.80859375 66.08203125 C-24.18226074 66.75186035 -24.55592773 67.42168945 -24.94091797 68.11181641 C-25.88247003 69.79046178 -26.83316829 71.46396967 -27.78515625 73.13671875 C-29.3905821 76.40217783 -29.3905821 76.40217783 -29 82 C-26.69 76.72 -24.38 71.44 -22 66 C-21.34 66 -20.68 66 -20 66 C-19.73380947 73.63726497 -20.43791203 80.59508624 -22 88.0625 C-24.61101677 100.04859472 -24.61101677 100.04859472 -23 112 C-22.01 105.07 -21.02 98.14 -20 91 C-17.78891945 93.21108055 -17.60995886 93.96852542 -17.03515625 96.9375 C-16.87660156 97.74147217 -16.71804687 98.54544434 -16.5546875 99.3737793 C-16.39226563 100.24043213 -16.22984375 101.10708496 -16.0625 102 C-15.88847656 102.89050049 -15.71445312 103.78100098 -15.53515625 104.69848633 C-14.53078393 109.91374498 -13.65324209 115.13731451 -12.85253906 120.38720703 C-11.76815364 127.4627468 -10.41953863 133.63258323 -7 140 C-7 137.78664808 -7.40197036 135.91733459 -7.875 133.75390625 C-8.05546875 132.91666016 -8.2359375 132.07941406 -8.421875 131.21679688 C-8.80647943 129.45099477 -9.19189274 127.68536864 -9.578125 125.91992188 C-9.75859375 125.08138672 -9.9390625 124.24285156 -10.125 123.37890625 C-10.29257812 122.6113501 -10.46015625 121.84379395 -10.6328125 121.05297852 C-11 119 -11 119 -11 116 C-5.64488902 117.78503699 -3.59677837 123.89727469 -1.09375 128.72119141 C1.29574127 133.6996538 3.23577053 138.88255745 5.12182617 144.06958008 C7.06893142 149.2730421 9.18592072 152.94218854 13 157 C11.84440373 154.67758808 10.67429468 152.3637777 9.4921875 150.0546875 C8.95851562 149.00539062 8.42484375 147.95609375 7.875 146.875 C7.33617187 145.82054687 6.79734375 144.76609375 6.2421875 143.6796875 C5 141 5 141 5 139 C7.94956528 140.36944102 10.52468811 141.87830409 13 144 C13 144.66 13 145.32 13 146 C13.55171875 146.21914062 14.1034375 146.43828125 14.671875 146.6640625 C17.767315 148.44030492 19.81068891 150.77539133 22.25 153.375 C26.44174045 157.69010894 30.22366681 161.10172921 36 163 C36.99 163.33064453 36.99 163.33064453 38 163.66796875 C43.81336589 165.26023257 49.48156498 165.04162496 55.46875 164.9375 C60.44831455 165.02563389 65.1566668 165.89295241 70 167 C70.495 169.475 70.495 169.475 71 172 C70.45174561 171.95286865 69.90349121 171.9057373 69.33862305 171.85717773 C56.052109 170.60626076 56.052109 170.60626076 44.625 176.3125 C43.85414062 177.11300781 43.08328125 177.91351563 42.2890625 178.73828125 C36.48217164 184.47580652 29.80687755 184.98968708 22 185 C14.78727785 184.30767938 6.71426517 180.57681211 2 175 C2 174.34 2 173.68 2 173 C2.6290625 173.2165625 3.258125 173.433125 3.90625 173.65625 C14.17165551 176.99559878 22.35302259 176.80304224 32.19140625 171.91015625 C33.82072674 170.98522886 35.41511918 169.999164 37 169 C32.67035953 169.48107116 28.49735507 170.09344326 24.25 171.0625 C13.60702629 173.22052232 4.20362194 172.57901265 -5.25 167.125 C-8.08711717 164.93268219 -10.53385983 162.59944504 -13 160 C-13.598125 159.443125 -14.19625 158.88625 -14.8125 158.3125 C-16 157 -16 157 -16 155 C-13.23911617 156.0876209 -10.55220129 157.21494338 -7.875 158.5 C-3.68766445 160.29897489 0.43088062 160.76657325 4.9375 161.1875 C6.10635742 161.3102832 6.10635742 161.3102832 7.29882812 161.43554688 C9.19820797 161.63364171 11.09898762 161.81823841 13 162 C8.12557018 159.75561273 3.43746252 158.31380934 -1.8125 157.1875 C-13.3084909 154.49198883 -22.34496316 149.01520582 -28.94921875 139.0625 C-34.24274194 130.30080645 -34.24274194 130.30080645 -35 125 C-34.319375 125.70125 -33.63875 126.4025 -32.9375 127.125 C-31.96194298 128.08700761 -30.9824929 129.04507705 -30 130 C-29.5153125 130.48082031 -29.030625 130.96164063 -28.53125 131.45703125 C-23.36767582 136.25358667 -17.35416925 139.05767532 -11 142 C-14.3798984 138.47180624 -17.84481109 135.53196374 -21.8125 132.6875 C-32.97183465 124.37619187 -41.14558114 116.0560094 -43.375 101.8125 C-43.60477598 99.87742583 -43.82107262 97.94043655 -44 96 C-43.01 95.505 -43.01 95.505 -42 95 C-41.75507812 95.52207031 -41.51015625 96.04414063 -41.2578125 96.58203125 C-37.60735752 103.76965123 -32.5469917 109.23759115 -27 115 C-29.29469926 109.81198427 -31.95375364 105.69011077 -35.5 101.25 C-43.76556785 90.49660499 -45.6669768 78.30030212 -45 65 C-44.7004158 63.32693748 -44.37694205 61.65734836 -44 60 C-43.34 60 -42.68 60 -42 60 C-41.93683594 60.53625 -41.87367187 61.0725 -41.80859375 61.625 C-40.44090486 70.3782089 -36.69797701 78.03056291 -33 86 C-34.00813185 78.49167474 -36.00918646 71.85590369 -38.87890625 64.84765625 C-42.79780946 54.89336901 -42.18122558 42.79386171 -38 33 C-36.3125 29.875 -36.3125 29.875 -35 28 C-34.34 28.33 -33.68 28.66 -33 29 C-33.165 29.495 -33.33 29.99 -33.5 30.5 C-35.18203442 38.91017212 -33.22097848 47.62757614 -32 56 C-32.02094727 55.20416504 -32.04189453 54.40833008 -32.06347656 53.58837891 C-32.14733768 49.93405112 -32.19888214 46.27992667 -32.25 42.625 C-32.28351562 41.37332031 -32.31703125 40.12164062 -32.3515625 38.83203125 C-32.43863737 30.51638078 -32.09249378 22.44255328 -26.19042969 16.03564453 C-23.51793179 13.59913043 -21.45639028 12.15213009 -18 11 C-18.29777344 11.57363281 -18.59554688 12.14726563 -18.90234375 12.73828125 C-22.0915421 19.30961878 -23.42486648 25.75331765 -24 33 C-23.68546875 31.84242187 -23.3709375 30.68484375 -23.046875 29.4921875 C-22.6151427 27.95296799 -22.1828196 26.41391412 -21.75 24.875 C-21.54503906 24.11445312 -21.34007813 23.35390625 -21.12890625 22.5703125 C-18.68312712 13.97302827 -14.16478248 8.26392183 -7 3 C-4.68323993 1.76090422 -2.48581655 0.88039336 0 0 Z M-26 36 C-25 38 -25 38 -25 38 Z M-27 52 C-26 54 -26 54 -26 54 Z M-26 116 C-25 118 -25 118 -25 118 Z " fill="#FAFAFA" transform="translate(45,46)"/>
<path d="M0 0 C1.28686523 1.37353516 1.28686523 1.37353516 2.55859375 3.2890625 C3.26145508 4.33126953 3.26145508 4.33126953 3.97851562 5.39453125 C4.45998047 6.13058594 4.94144531 6.86664063 5.4375 7.625 C5.91509766 8.33785156 6.39269531 9.05070312 6.88476562 9.78515625 C7.82465104 11.19047189 8.75886575 12.59959882 9.68701172 14.01269531 C10.52491872 15.28092941 11.37441885 16.54163073 12.23876953 17.79199219 C15 21.79218956 15 21.79218956 15 24 C12.29120665 25.35439668 9.99066732 25.06501451 7 25 C6.505 23.02 6.505 23.02 6 21 C3.03 21.66 0.06 22.32 -3 23 C-3 24.98 -3 26.96 -3 29 C-4.57533086 29.86883706 -6.16064509 30.71959068 -7.75 31.5625 C-9.07257813 32.27599609 -9.07257813 32.27599609 -10.421875 33.00390625 C-13.27093576 34.10467973 -14.2297697 34.15571453 -17 33 C-19.01254782 31.68568305 -21.01310269 30.35278115 -23 29 C-23.99 28.67 -24.98 28.34 -26 28 C-25.484375 28.886875 -24.96875 29.77375 -24.4375 30.6875 C-22.9131063 34.20023331 -22.85052105 35.44706507 -24 39 C-26.475 39.495 -26.475 39.495 -29 40 C-31.90039279 33.83183133 -34.78926047 27.65643832 -37.4375 21.375 C-37.76621094 20.59898438 -38.09492187 19.82296875 -38.43359375 19.0234375 C-39 17 -39 17 -38 14 C-32.74013835 10.98716737 -27.06869479 9.1330436 -21 10 C-18.59770198 11.52145541 -18.12560863 12.64249851 -17.1875 15.3125 C-16.95661874 18.62179801 -17.79007065 20.93959048 -19 24 C-17.576875 24.433125 -17.576875 24.433125 -16.125 24.875 C-13 26 -13 26 -11 28 C-10.94465088 27.31897217 -10.88930176 26.63794434 -10.83227539 25.9362793 C-10.57952368 22.85302403 -10.32107872 19.77027182 -10.0625 16.6875 C-9.97548828 15.61564453 -9.88847656 14.54378906 -9.79882812 13.43945312 C-9.71181641 12.41142578 -9.62480469 11.38339844 -9.53515625 10.32421875 C-9.456604 9.37635498 -9.37805176 8.42849121 -9.29711914 7.4519043 C-9 5 -9 5 -8 2 C-5.10441559 0.5522078 -3.25811062 0 0 0 Z M-3 9 C-3 11.64 -3 14.28 -3 17 C-1.35 16.67 0.3 16.34 2 16 C0.02 12.535 0.02 12.535 -2 9 C-2.33 9 -2.66 9 -3 9 Z M-30 17 C-29.65555119 19.47266765 -29.65555119 19.47266765 -29 22 C-28.34 22.33 -27.68 22.66 -27 23 C-26.01 22.01 -25.02 21.02 -24 20 C-24.66 18.68 -25.32 17.36 -26 16 C-28.0745356 15.8509288 -28.0745356 15.8509288 -30 17 Z " fill="#F9F9F9" transform="translate(86,7)"/>
<path d="M0 0 C6.21809512 0.87816179 11.30150884 2.62859868 16.0625 6.8125 C17.54664466 10.27550421 17.08095625 12.43920295 16 16 C12.9375 18.4375 12.9375 18.4375 10 20 C11.485 24.455 11.485 24.455 13 29 C14.32 29 15.64 29 17 29 C18 30 19 31 20 32 C22.60611077 32.72197162 22.60611077 32.72197162 25 33 C24.071875 31.3603125 24.071875 31.3603125 23.125 29.6875 C22.77695313 29.07261719 22.42890625 28.45773438 22.0703125 27.82421875 C21.10571419 26.18017711 20.05732941 24.58599412 19 23 C18.39453162 19.02120782 18.70154586 17.45249499 20.9375 14.0625 C24.70187456 11.52730897 26.50068841 11.64678829 30.84375 12.4140625 C33.64963307 13.17653073 35.74059617 14.16423439 38 16 C39 19 39 19 38.0625 21.1875 C37.5365625 22.0846875 37.5365625 22.0846875 37 23 C33.66666667 21.33333333 30.33333333 19.66666667 27 18 C27.680625 19.6396875 27.680625 19.6396875 28.375 21.3125 C28.63023437 21.92738281 28.88546875 22.54226562 29.1484375 23.17578125 C30.06806692 25.26533932 30.06806692 25.26533932 32 28 C32.3350232 31.01520879 32.56604719 33.09973758 32 36 C29.52778947 38.90848298 27.91381108 39.81723778 24.1875 40.5625 C20.4186448 39.89740791 18.19880403 38.49959781 15.09375 36.33203125 C12.97221417 34.98232282 10.98592511 34.27152246 8.625 33.4375 C6.6328125 32.51171875 6.6328125 32.51171875 5 31 C3.71575043 27.03580815 3.26088227 23.14802807 3 19 C0.38952199 20.305239 0.31933577 21.35826574 -0.625 24.0625 C-0.88539063 24.79597656 -1.14578125 25.52945313 -1.4140625 26.28515625 C-1.60742188 26.85105469 -1.80078125 27.41695312 -2 28 C-4.31 27.34 -6.62 26.68 -9 26 C-6.56696874 17.12157015 -3.29163506 8.58594775 0 0 Z M5 8 C4.34 9.65 3.68 11.3 3 13 C5.475 13.495 5.475 13.495 8 14 C8.33 12.35 8.66 10.7 9 9 C7.68 8.67 6.36 8.34 5 8 Z " fill="#F8F8F8" transform="translate(182,8)"/>
<path d="M0 0 C1.2065625 0.0309375 1.2065625 0.0309375 2.4375 0.0625 C3.70791977 9.10289783 4.78665606 17.90685229 4.4375 27.0625 C1.30859375 27.99609375 1.30859375 27.99609375 -2.5625 28.0625 C-5.07192823 26.14406306 -6.71826418 23.71011877 -8.5 21.125 C-8.99306641 20.45275391 -9.48613281 19.78050781 -9.99414062 19.08789062 C-11.20601885 17.42891169 -12.38733394 15.74768387 -13.5625 14.0625 C-13.47871094 15.13371094 -13.39492187 16.20492188 -13.30859375 17.30859375 C-13.20545104 18.70570866 -13.10260157 20.10284524 -13 21.5 C-12.94392578 22.20705078 -12.88785156 22.91410156 -12.83007812 23.64257812 C-12.70059007 25.44677837 -12.62728392 27.25481952 -12.5625 29.0625 C-13.5625 30.0625 -13.5625 30.0625 -16.0625 30.1875 C-18.5625 30.0625 -18.5625 30.0625 -19.5625 29.0625 C-19.96963885 26.20658442 -20.31855255 23.36698614 -20.625 20.5 C-20.76131836 19.31954102 -20.76131836 19.31954102 -20.90039062 18.11523438 C-21.45405154 13.06568032 -21.64977189 8.14172421 -21.5625 3.0625 C-17.36874071 1.57721025 -17.36874071 1.57721025 -14.5625 2.0625 C-11.42389412 4.69709618 -9.01486772 7.79445345 -6.5625 11.0625 C-5.99015625 11.82175781 -5.4178125 12.58101562 -4.828125 13.36328125 C-4.41046875 13.92402344 -3.9928125 14.48476562 -3.5625 15.0625 C-3.57410156 14.06347656 -3.58570312 13.06445312 -3.59765625 12.03515625 C-3.60667969 10.74480469 -3.61570312 9.45445313 -3.625 8.125 C-3.63660156 6.83722656 -3.64820312 5.54945312 -3.66015625 4.22265625 C-3.53232863 0.08615436 -3.53232863 0.08615436 0 0 Z " fill="#FBFBFB" transform="translate(121.5625,-0.0625)"/>
<path d="M0 0 C0.9796875 -0.00257812 1.959375 -0.00515625 2.96875 -0.0078125 C5.5 0.125 5.5 0.125 7.5 1.125 C7.5 3.435 7.5 5.745 7.5 8.125 C6.984375 7.96 6.46875 7.795 5.9375 7.625 C2.0616331 6.82995038 -1.86527115 6.14416269 -5.375 8.25 C-6.98998958 10.94164929 -7.37456746 12.98918639 -7.5 16.125 C-6.59762034 19.01799553 -6.59762034 19.01799553 -4.5 21.125 C-1.4042893 22.01707179 -1.4042893 22.01707179 1.5 22.125 C1.5 20.805 1.5 19.485 1.5 18.125 C-0.15 17.795 -1.8 17.465 -3.5 17.125 C-3.5 15.475 -3.5 13.825 -3.5 12.125 C0.46 12.125 4.42 12.125 8.5 12.125 C8.5810206 14.22853495 8.63919907 16.33295952 8.6875 18.4375 C8.73970703 20.19513672 8.73970703 20.19513672 8.79296875 21.98828125 C8.5 25.125 8.5 25.125 7.35546875 27.01953125 C4.72005504 28.589683 2.6756775 28.52282302 -0.375 28.5 C-1.40367187 28.50773437 -2.43234375 28.51546875 -3.4921875 28.5234375 C-7.62202104 27.97636864 -10.23221492 26.302229 -13.25 23.5 C-15.89439638 18.47564689 -15.9615241 13.6890539 -14.375 8.3125 C-10.78258474 2.20539406 -6.87681858 -0.01809689 0 0 Z " fill="#FCFCFC" transform="translate(144.5,-0.125)"/>
<path d="M0 0 C3.69230769 0.69230769 3.69230769 0.69230769 5 2 C5.33 1.34 5.66 0.68 6 0 C6.99 0 7.98 0 9 0 C9.495 1.98 9.495 1.98 10 4 C10.66 2.68 11.32 1.36 12 0 C13.32 0 14.64 0 16 0 C16.99 3.3 17.98 6.6 19 10 C17.68 10 16.36 10 15 10 C15 9.34 15 8.68 15 8 C14.37351563 8.16757812 13.74703125 8.33515625 13.1015625 8.5078125 C12.28429687 8.71148437 11.46703125 8.91515625 10.625 9.125 C9.81289062 9.33382812 9.00078125 9.54265625 8.1640625 9.7578125 C7.44992188 9.83773437 6.73578125 9.91765625 6 10 C5.34 9.34 4.68 8.68 4 8 C3.67 8.66 3.34 9.32 3 10 C2.05125 9.979375 1.1025 9.95875 0.125 9.9375 C-4.61581985 9.92776526 -9.29411917 10.46975991 -14 11 C-14.33 9.02 -14.66 7.04 -15 5 C-15.66 5 -16.32 5 -17 5 C-16.67 7.31 -16.34 9.62 -16 12 C-17.32 12 -18.64 12 -20 12 C-20.33 10.35 -20.66 8.7 -21 7 C-21.33 7 -21.66 7 -22 7 C-21.67 8.65 -21.34 10.3 -21 12 C-22.9375 12.5625 -22.9375 12.5625 -25 13 C-25.33 12.67 -25.66 12.34 -26 12 C-26.33 12.66 -26.66 13.32 -27 14 C-29.32156597 14.40729228 -31.6568787 14.74438677 -34 15 C-34.66 12.03 -35.32 9.06 -36 6 C-33.69 5.34 -31.38 4.68 -29 4 C-28.34 4.66 -27.68 5.32 -27 6 C-26.34 5.01 -25.68 4.02 -25 3 C-22.24288731 2.45498935 -19.65847454 2.07450235 -16.875 1.8125 C-16.12089844 1.73064453 -15.36679688 1.64878906 -14.58984375 1.56445312 C-12.72783393 1.3641103 -10.86404189 1.18045964 -9 1 C-9.020625 1.969375 -9.04125 2.93875 -9.0625 3.9375 C-9.35618499 6.87465895 -9.35618499 6.87465895 -8 8 C-8 5.69 -8 3.38 -8 1 C-6.865625 1.020625 -5.73125 1.04125 -4.5625 1.0625 C-1.18424326 1.41577477 -1.18424326 1.41577477 0 0 Z M-1 5 C0 8 0 8 0 8 Z M-32 8 C-31 10 -31 10 -31 10 Z M-31 12 C-30 14 -30 14 -30 14 Z " fill="#FCFCFC" transform="translate(116,32)"/>
<path d="M0 0 C5.27315333 0.4452885 10.01770224 1.08373163 15 3 C15 4.65 15 6.3 15 8 C12.45297384 9.27351308 11.5717055 8.80191925 8.875 8.0625 C8.15054688 7.86785156 7.42609375 7.67320313 6.6796875 7.47265625 C6.12539062 7.31667969 5.57109375 7.16070313 5 7 C5 8.65 5 10.3 5 12 C7.31 12.33 9.62 12.66 12 13 C12 14.98 12 16.96 12 19 C9.36 18.67 6.72 18.34 4 18 C4 19.32 4 20.64 4 22 C6.31 22.66 8.62 23.32 11 24 C11 25.65 11 27.3 11 29 C7.12813552 30.44715727 4.1767672 29.5441918 0.25 28.5625 C-1.50570312 28.13130859 -1.50570312 28.13130859 -3.296875 27.69140625 C-4.18890625 27.46324219 -5.0809375 27.23507813 -6 27 C-5.1921724 22.87407059 -4.37795082 18.74942895 -3.5625 14.625 C-3.33240234 13.449375 -3.10230469 12.27375 -2.86523438 11.0625 C-2.64287109 9.94101563 -2.42050781 8.81953125 -2.19140625 7.6640625 C-1.98717041 6.62717285 -1.78293457 5.5902832 -1.57250977 4.52197266 C-1 2 -1 2 0 0 Z " fill="#F8F8F8" transform="translate(161,3)"/>
<path d="M0 0 C1.97956441 0.14033111 3.95865141 0.2874123 5.9375 0.4375 C7.03964844 0.51871094 8.14179688 0.59992187 9.27734375 0.68359375 C12 1 12 1 13 2 C13.969375 1.979375 14.93875 1.95875 15.9375 1.9375 C19 2 19 2 21 4 C22.34262065 3.70630173 23.67696283 3.3721042 25 3 C25.66 3.33 26.32 3.66 27 4 C28.32 4 29.64 4 31 4 C31 5.65 31 7.3 31 9 C31.99 7.68 32.98 6.36 34 5 C35.32 5.33 36.64 5.66 38 6 C38.495 8.475 38.495 8.475 39 11 C39.66 9.68 40.32 8.36 41 7 C41.99 7.33 42.98 7.66 44 8 C43.125 12.75 43.125 12.75 42 15 C42.66 15 43.32 15 44 15 C44 15.99 44 16.98 44 18 C41.03 17.01 38.06 16.02 35 15 C35 14.34 35 13.68 35 13 C33.6696875 13.309375 33.6696875 13.309375 32.3125 13.625 C29 14 29 14 26.6484375 13.05859375 C23.7648317 11.90600205 21.40133944 11.63555655 18.3125 11.4375 C13.19656786 11.09828393 13.19656786 11.09828393 11 10 C9.68 10 8.36 10 7 10 C7.33 7.69 7.66 5.38 8 3 C7.34 3 6.68 3 6 3 C5.67 5.31 5.34 7.62 5 10 C4.01 10 3.02 10 2 10 C2 7.69 2 5.38 2 3 C1.34 3 0.68 3 0 3 C0 2.01 0 1.02 0 0 Z M15 5 C15 5.99 15 6.98 15 8 C15.99 7.67 16.98 7.34 18 7 C17.67 6.34 17.34 5.68 17 5 C16.34 5 15.68 5 15 5 Z " fill="#FCFCFC" transform="translate(134,32)"/>
<path d="M0 0 C0.66 0.33 1.32 0.66 2 1 C2 2.98 2 4.96 2 7 C-1.63 7 -5.26 7 -9 7 C-9.72795155 11.20594226 -10.04973814 13.80104745 -9 18 C-5.37 18 -1.74 18 2 18 C2 19.98 2 21.96 2 24 C-2.82450176 25.60816725 -7.1893338 25.80474053 -11.8125 23.75 C-14.77851356 21.37718915 -16.76235309 19.43287105 -17.3984375 15.59765625 C-17.31569116 6.64726027 -17.31569116 6.64726027 -14 3 C-9.21747009 -0.22542715 -5.57534937 -0.37168996 0 0 Z " fill="#F8F8F8" transform="translate(153,205)"/>
<path d="M0 0 C0 1.98 0 3.96 0 6 C-2.64 6 -5.28 6 -8 6 C-8 7.32 -8 8.64 -8 10 C-5.36 10 -2.72 10 0 10 C0 11.65 0 13.3 0 15 C-2.64 15.33 -5.28 15.66 -8 16 C-8 18.64 -8 21.28 -8 24 C-9.98 24 -11.96 24 -14 24 C-14 16.41 -14 8.82 -14 1 C-3 0 -3 0 0 0 Z " fill="#FBFBFB" transform="translate(134,205)"/>
<path d="M0 0 C1.18916016 0.02707031 1.18916016 0.02707031 2.40234375 0.0546875 C4.35208348 0.10166918 6.30119878 0.17340956 8.25 0.25 C8.25 1.9 8.25 3.55 8.25 5.25 C7.59 5.25 6.93 5.25 6.25 5.25 C6.25 6.57 6.25 7.89 6.25 9.25 C6.91 8.92 7.57 8.59 8.25 8.25 C8.25 9.9 8.25 11.55 8.25 13.25 C-5.15 13.25 -5.15 13.25 -10.75 12.25 C-12.75 10.25 -12.75 10.25 -13.125 7.375 C-12.75 4.25 -12.75 4.25 -11.2734375 2.0703125 C-7.58429043 -0.59089886 -4.42453868 -0.19077613 0 0 Z M-6.75 2.25 C-7.41 2.91 -8.07 3.57 -8.75 4.25 C-8.42673447 7.84679066 -8.42673447 7.84679066 -7.75 11.25 C-6.96625 11.064375 -6.1825 10.87875 -5.375 10.6875 C-2.75 10.25 -2.75 10.25 -0.75 11.25 C-0.75 8.28 -0.75 5.31 -0.75 2.25 C-1.41 2.91 -2.07 3.57 -2.75 4.25 C-4.07 3.59 -5.39 2.93 -6.75 2.25 Z M3.25 2.25 C3.58 3.24 3.91 4.23 4.25 5.25 C4.58 4.26 4.91 3.27 5.25 2.25 C4.59 2.25 3.93 2.25 3.25 2.25 Z M3.25 8.25 C3.25 9.24 3.25 10.23 3.25 11.25 C3.91 10.92 4.57 10.59 5.25 10.25 C4.59 9.59 3.93 8.93 3.25 8.25 Z " fill="#F0F0F0" transform="translate(63.75,123.75)"/>
<path d="M0 0 C1.69967317 0 3.35107482 -0.58776871 5 -1 C4.67 2.96 4.34 6.92 4 11 C1.56070254 9.07423885 -0.80090595 7.19909405 -3 5 C-2.67 6.65 -2.34 8.3 -2 10 C-3.32 10.33 -4.64 10.66 -6 11 C-5.67 7.37 -5.34 3.74 -5 0 C-5.66 0 -6.32 0 -7 0 C-7 3.63 -7 7.26 -7 11 C-8.65 11 -10.3 11 -12 11 C-12 7.04 -12 3.08 -12 -1 C-7.25530759 -1.93033184 -4.36113819 -2.1805691 0 0 Z " fill="#F1F1F1" transform="translate(46,126)"/>
<path d="M0 0 C0 5.61 0 11.22 0 17 C-0.99 17.33 -1.98 17.66 -3 18 C-4.75734451 13.02638346 -6.32584613 8.2584002 -7 3 C-2.25 0 -2.25 0 0 0 Z " fill="#F9F9F9" transform="translate(86,116)"/>
<path d="M0 0 C3.0625 0.1875 3.0625 0.1875 5.0625 2.1875 C5.49912786 6.1171507 5.66001439 8.32442366 3.375 11.625 C0.67839191 13.44703249 -0.74876451 13.54180394 -3.9375 13.1875 C-2.9475 12.1975 -1.9575 11.2075 -0.9375 10.1875 C-1.618125 9.630625 -2.29875 9.07375 -3 8.5 C-4.9375 6.1875 -4.9375 6.1875 -4.75 3.5 C-3.60102941 0.22985294 -3.60102941 0.22985294 0 0 Z M0.0625 1.1875 C-0.2675 2.8375 -0.5975 4.4875 -0.9375 6.1875 C0.0525 6.1875 1.0425 6.1875 2.0625 6.1875 C1.7325 4.5375 1.4025 2.8875 1.0625 1.1875 C0.7325 1.1875 0.4025 1.1875 0.0625 1.1875 Z " fill="#F6F6F6" transform="translate(207.9375,123.8125)"/>
<path d="M0 0 C-0.020625 0.886875 -0.04125 1.77375 -0.0625 2.6875 C-0.11350834 5.93148737 -0.11350834 5.93148737 0.625 8.75 C0.74875 9.4925 0.8725 10.235 1 11 C-1 13 -1 13 -4.125 13.125 C-5.548125 13.063125 -5.548125 13.063125 -7 13 C-7 11.35 -7 9.7 -7 8 C-6.01 8.495 -6.01 8.495 -5 9 C-5 9.66 -5 10.32 -5 11 C-4.01 11 -3.02 11 -2 11 C-2 10.34 -2 9.68 -2 9 C-2.639375 8.690625 -3.27875 8.38125 -3.9375 8.0625 C-6 7 -6 7 -7 6 C-7.04063832 4.33382885 -7.042721 2.66611905 -7 1 C-4.53721199 -0.231394 -2.7204945 -0.07159196 0 0 Z M-4 2 C-3.67 2.99 -3.34 3.98 -3 5 C-2.34 4.67 -1.68 4.34 -1 4 C-1.33 3.34 -1.66 2.68 -2 2 C-2.66 2 -3.32 2 -4 2 Z " fill="#F2F2F2" transform="translate(33,124)"/>
<path d="M0 0 C2.97 0 5.94 0 9 0 C8.52343588 1.79236067 8.04366502 3.58386897 7.5625 5.375 C7.29566406 6.37273437 7.02882812 7.37046875 6.75390625 8.3984375 C6 11 6 11 5 13 C4.01 13 3.02 13 2 13 C2.99 9.7 3.98 6.4 5 3 C3.02 3.66 1.04 4.32 -1 5 C-0.67 3.35 -0.34 1.7 0 0 Z " fill="#F8F8F8" transform="translate(215,124)"/>
<path d="M0 0 C0.06058594 0.77085938 0.12117187 1.54171875 0.18359375 2.3359375 C0.26738281 3.33882813 0.35117188 4.34171875 0.4375 5.375 C0.51871094 6.37273437 0.59992188 7.37046875 0.68359375 8.3984375 C0.84965626 10.97927613 0.84965626 10.97927613 2 13 C-0.64 13 -3.28 13 -6 13 C-5.34 12.67 -4.68 12.34 -4 12 C-4 9.03 -4 6.06 -4 3 C-4.66 2.67 -5.32 2.34 -6 2 C-3 0 -3 0 0 0 Z " fill="#F3F3F3" transform="translate(201,124)"/>
<path d="M0 0 C0.33 0 0.66 0 1 0 C1 1.65 1 3.3 1 5 C-2.3 5 -5.6 5 -9 5 C-9 4.67 -9 4.34 -9 4 C-6.69 4 -4.38 4 -2 4 C-1.34 2.68 -0.68 1.36 0 0 Z " fill="#DBDBDB" transform="translate(71,132)"/>
</svg>
